<svg role="{{role}}" class="{{class}}" width="186" height="32" viewBox="0 0 238 42" fill="none"
    xmlns="http://www.w3.org/2000/svg">
    <title>Yousician Logo</title>
    <path
        d="M51.8955 36.0835C52.7635 36.324 53.6497 36.4442 54.549 36.4442C55.3882 36.4442 56.0627 36.2429 56.5724 35.8377C57.0822 35.4325 57.5162 34.7214 57.8769 33.7019L58.5959 31.7229L48.8394 9.28467H56.1228L61.6075 24.7088L66.7341 9.28467H73.6148L64.1276 33.43C63.5891 34.7789 63.0767 35.9554 62.5983 36.9592C62.1173 37.9631 61.5709 38.8023 60.9565 39.4768C60.3422 40.1512 59.6076 40.6532 58.7527 40.9826C57.8979 41.312 56.8417 41.4767 55.5816 41.4767C54.8026 41.4767 54.0314 41.4244 53.2654 41.3198C52.502 41.2152 51.6995 41.027 50.8603 40.7578L51.8955 36.0835Z"
        fill="#00D296" />
    <path
        d="M85.3031 33.4744C81.5255 33.4744 78.6028 32.3947 76.5349 30.2379C74.467 28.0785 73.4318 24.9937 73.4318 20.9756C73.4318 19.0567 73.7089 17.3261 74.2631 15.781C74.8173 14.2386 75.6121 12.9341 76.6473 11.8701C77.6825 10.8061 78.9322 9.99045 80.4014 9.42054C81.8706 8.85063 83.5045 8.56567 85.3031 8.56567C87.1305 8.56567 88.7801 8.85063 90.2493 9.42054C91.7185 9.99045 92.9708 10.8087 94.0034 11.8701C95.0386 12.9341 95.8255 14.2386 96.3641 15.781C96.9026 17.3261 97.1745 19.0567 97.1745 20.9756C97.1745 22.9258 96.8974 24.6695 96.3432 26.2146C95.7889 27.7596 94.9942 29.0693 93.9589 30.149C92.9237 31.2287 91.6715 32.0522 90.2049 32.6221C88.7356 33.1894 87.1017 33.4744 85.3031 33.4744ZM85.3031 28.4393C87.1017 28.4393 88.4428 27.7962 89.3265 26.5047C90.2101 25.2159 90.6519 23.3729 90.6519 20.973C90.6519 18.5757 90.2101 16.7457 89.3265 15.4882C88.4428 14.2282 87.1017 13.6007 85.3031 13.6007C83.5045 13.6007 82.1634 14.2308 81.2798 15.4882C80.3962 16.7483 79.9543 18.5757 79.9543 20.973C79.9543 23.4016 80.3883 25.2525 81.2589 26.5256C82.1242 27.8014 83.4731 28.4393 85.3031 28.4393Z"
        fill="#00D296" />
    <path
        d="M100.1 9.28467H106.395V23.9428C106.395 25.6212 106.696 26.7532 107.294 27.3388C107.893 27.9243 108.716 28.2145 109.767 28.2145C110.578 28.2145 111.244 28.0943 111.767 27.8538C112.29 27.6133 112.795 27.2682 113.273 26.8185C113.751 26.4002 114.133 25.8957 114.421 25.3127C114.706 24.7271 114.847 24.0918 114.847 23.4017V9.28467H121.142V32.7555H115.027V29.519C114.068 30.8994 112.98 31.9033 111.767 32.5307C110.554 33.1607 109.258 33.4744 107.877 33.4744C105.208 33.4744 103.245 32.7764 101.987 31.383C100.727 29.9896 100.1 27.7936 100.1 24.7951V9.28467Z"
        fill="#00D296" />
    <path
        d="M129.918 25.2918C130.127 26.6721 130.681 27.5714 131.581 27.9897C132.48 28.4106 133.56 28.6197 134.817 28.6197C136.315 28.6197 137.387 28.4341 138.033 28.0577C138.676 27.6838 139 27.0773 139 26.2355C139 25.6368 138.799 25.1114 138.394 24.6617C137.988 24.2121 137.217 23.8984 136.077 23.718L132.841 23.1794C129.991 22.7298 127.871 21.9586 126.478 20.8632C125.084 19.7704 124.386 18.113 124.386 15.8935C124.386 14.7537 124.635 13.7341 125.129 12.8348C125.623 11.9355 126.321 11.1721 127.22 10.5421C128.119 9.91207 129.191 9.42582 130.436 9.08073C131.68 8.73565 133.05 8.56311 134.551 8.56311C136.409 8.56311 137.967 8.75134 139.227 9.12518C140.488 9.50163 141.512 10.001 142.307 10.631C143.102 11.261 143.7 12.0113 144.106 12.8793C144.511 13.7498 144.804 14.6779 144.981 15.6661L139.361 16.385C139.092 15.3053 138.618 14.5106 137.944 14.0008C137.269 13.491 136.182 13.2374 134.684 13.2374C133.845 13.2374 133.147 13.3054 132.592 13.4387C132.038 13.5746 131.604 13.7472 131.288 13.9563C130.974 14.1655 130.749 14.406 130.613 14.6753C130.478 14.9445 130.412 15.2007 130.412 15.4386C130.412 16.1889 130.645 16.7353 131.11 17.0804C131.576 17.4255 132.483 17.7183 133.832 17.9561L136.799 18.4502C138.446 18.7195 139.81 19.0646 140.89 19.4855C141.97 19.9064 142.83 20.424 143.476 21.0357C144.119 21.6501 144.568 22.3769 144.825 23.216C145.078 24.0552 145.206 25.0303 145.206 26.1388C145.206 28.3583 144.367 30.1334 142.689 31.4666C141.01 32.7999 138.417 33.4666 134.909 33.4666C133.5 33.4666 132.159 33.3385 130.885 33.0849C129.61 32.8287 128.472 32.3869 127.469 31.7594C126.465 31.1294 125.639 30.2902 124.995 29.2419C124.35 28.1936 123.984 26.8734 123.895 25.2839H129.918V25.2918Z"
        fill="#00D296" />
    <path
        d="M148.111 0.64978H154.587V6.31488H148.111V0.64978ZM148.2 9.28468H154.495V32.7555H148.2V9.28468Z"
        fill="#00D296" />
    <path
        d="M179.514 24.2565C179.273 27.0747 178.306 29.3151 176.614 30.9778C174.92 32.6405 172.379 33.4744 168.994 33.4744C167.015 33.4744 165.308 33.1738 163.867 32.5751C162.427 31.9764 161.25 31.1373 160.338 30.0576C159.423 28.9779 158.741 27.6734 158.291 26.1466C157.841 24.6173 157.617 22.9259 157.617 21.0645C157.617 19.2058 157.878 17.5065 158.403 15.9615C158.926 14.4191 159.684 13.0989 160.675 12.0035C161.663 10.9107 162.879 10.0637 164.317 9.46242C165.755 8.86375 167.404 8.56311 169.263 8.56311C170.853 8.56311 172.238 8.76441 173.422 9.16962C174.607 9.57483 175.603 10.1369 176.413 10.8558C177.224 11.5747 177.851 12.4374 178.301 13.4413C178.75 14.4452 179.048 15.5484 179.2 16.7457L172.86 17.6006C172.709 16.4033 172.366 15.436 171.825 14.7014C171.287 13.9668 170.356 13.6008 169.038 13.6008C168.079 13.6008 167.284 13.8021 166.654 14.2073C166.024 14.6125 165.522 15.1589 165.148 15.8491C164.772 16.5392 164.51 17.3261 164.361 18.2097C164.21 19.0934 164.137 20.0162 164.137 20.9756C164.137 21.9638 164.212 22.9102 164.361 23.8095C164.51 24.7088 164.767 25.5035 165.125 26.1937C165.485 26.8839 165.98 27.4302 166.61 27.8354C167.24 28.2407 168.034 28.442 168.994 28.442C170.254 28.442 171.226 28.0812 171.917 27.3623C172.607 26.6433 173.009 25.6081 173.13 24.2591H179.514V24.2565Z"
        fill="#00D296" />
    <path
        d="M182.227 0.64978H188.703V6.31488H182.227V0.64978ZM182.319 9.28468H188.614V32.7555H182.319V9.28468Z"
        fill="#00D296" />
    <path
        d="M206.644 29.7883C205.713 30.8393 204.673 31.6915 203.52 32.3503C202.364 33.0091 200.874 33.3385 199.047 33.3385C197.996 33.3385 197 33.2026 196.056 32.9333C195.112 32.664 194.286 32.2431 193.583 31.6732C192.877 31.1033 192.315 30.3766 191.897 29.4929C191.476 28.6093 191.267 27.5532 191.267 26.3218C191.267 24.7036 191.628 23.3834 192.347 22.3638C193.066 21.3443 194.009 20.5495 195.18 19.9796C196.349 19.4097 197.661 19.0071 199.115 18.7666C200.568 18.5261 202.046 18.3771 203.543 18.317L206.555 18.181V17.0125C206.555 15.5746 206.158 14.5838 205.363 14.0453C204.568 13.5067 203.632 13.2348 202.553 13.2348C200.064 13.2348 198.642 14.1786 198.281 16.0687L192.524 15.5302C192.943 13.0728 194.022 11.2977 195.761 10.2023C197.499 9.10954 199.836 8.56055 202.775 8.56055C204.574 8.56055 206.103 8.77753 207.36 9.2115C208.62 9.64547 209.632 10.2677 210.395 11.0781C211.159 11.8885 211.713 12.8688 212.058 14.0244C212.403 15.1799 212.576 16.4739 212.576 17.9144V32.7529H206.641V29.7883H206.644ZM206.508 22.2776L203.721 22.4135C202.401 22.4736 201.337 22.6096 200.529 22.8187C199.719 23.0279 199.097 23.2919 198.663 23.6056C198.229 23.9193 197.936 24.2879 197.787 24.7062C197.635 25.1271 197.562 25.5898 197.562 26.0996C197.562 26.8787 197.831 27.493 198.372 27.9427C198.911 28.3923 199.661 28.6172 200.621 28.6172C202.239 28.6172 203.559 28.2433 204.579 27.493C205.149 27.0747 205.614 26.5414 205.972 25.8957C206.333 25.2526 206.511 24.45 206.511 23.4906V22.2776H206.508Z"
        fill="#00D296" />
    <path
        d="M216.463 9.2846H222.578V12.5211C223.506 11.1433 224.609 10.1368 225.882 9.50942C227.156 8.87939 228.484 8.56567 229.861 8.56567C232.528 8.56567 234.507 9.26368 235.796 10.6571C237.085 12.0505 237.73 14.2465 237.73 17.245V32.758H231.438V18.0973C231.438 16.4477 231.124 15.3262 230.494 14.7249C229.864 14.1262 229.025 13.8256 227.976 13.8256C227.166 13.8256 226.471 13.9458 225.885 14.1863C225.299 14.4268 224.753 14.7719 224.243 15.2216C223.822 15.6425 223.472 16.1444 223.187 16.7274C222.902 17.313 222.761 17.9483 222.761 18.6384V32.758H216.466V9.2846H216.463Z"
        fill="#00D296" />
    <path
        d="M13.9653 34.622C10.2165 34.622 7.16303 31.5712 7.16303 27.8197H0.363342C0.363342 35.32 6.46503 41.4217 13.9653 41.4217C21.4657 41.4217 27.5673 35.32 27.5673 27.8197H20.7676C20.7676 31.5712 17.7168 34.622 13.9653 34.622Z"
        fill="#00D296" />
    <path
        d="M20.7676 0.615723V14.2177C20.7676 17.9692 17.7168 21.02 13.9653 21.02C10.2139 21.02 7.16565 17.9692 7.16565 14.2177V0.615723H0.363342V14.2177C0.363342 21.718 6.46503 27.8197 13.9653 27.8197C21.4657 27.8197 27.5673 21.718 27.5673 14.2177V0.615723H20.7676Z"
        fill="#00D296" />
</svg>